<?xml version="1.0" standalone="no"?>
<!DOCTYPE svg PUBLIC "-//W3C//DTD SVG 20010904//EN"
 "http://www.w3.org/TR/2001/REC-SVG-20010904/DTD/svg10.dtd">
<svg version="1.0" xmlns="http://www.w3.org/2000/svg"
 width="195.000000pt" height="195.000000pt" viewBox="0 0 195.000000 195.000000"
 preserveAspectRatio="xMidYMid meet">

<g transform="translate(0.000000,195.000000) scale(0.100000,-0.100000)"
fill="#000000" stroke="none">
<path d="M446 1594 c-216 -52 -386 -264 -386 -481 l0 -53 124 0 123 0 7 56
c16 139 121 236 256 236 137 0 250 -109 250 -240 l0 -52 530 0 530 0 0 235 0
235 -62 0 -63 0 -147 -147 -148 -148 0 148 0 147 -62 0 -63 0 -137 -137 c-76
-75 -139 -135 -141 -133 -2 3 -18 36 -36 74 -99 204 -345 316 -575 260z m272
-55 c72 -24 140 -69 196 -129 49 -52 106 -159 106 -197 0 -12 5 -25 11 -29 7
-4 77 59 168 150 125 125 162 156 184 156 l27 0 0 -175 c0 -96 3 -175 7 -175
4 0 86 79 183 175 154 153 180 175 208 175 l32 0 0 -195 0 -195 -484 0 -484 0
-7 43 c-16 95 -89 188 -178 227 -56 25 -154 29 -213 10 -99 -32 -175 -118
-196 -222 l-12 -58 -83 0 -84 0 6 38 c22 131 73 232 156 306 126 113 300 149
457 95z"/>
<path d="M72 998 c3 -22 7 -23 135 -26 79 -1 133 1 133 7 0 38 -10 41 -142 41
-128 0 -129 0 -126 -22z"/>
<path d="M806 1004 c-3 -9 -6 -20 -6 -25 0 -5 219 -9 540 -9 l540 0 0 25 0 25
-534 0 c-478 0 -535 -2 -540 -16z"/>
<path d="M90 928 c0 -36 10 -38 172 -38 l161 0 -25 19 c-21 17 -44 20 -166 23
-78 2 -142 0 -142 -4z"/>
<path d="M929 933 c-161 -3 -178 -5 -194 -23 -18 -20 -17 -20 167 -20 166 0
187 2 201 18 18 20 22 34 10 30 -5 -1 -87 -4 -184 -5z"/>
<path d="M1160 913 l0 -23 193 0 c175 0 196 2 210 18 10 10 17 20 17 23 0 2
-94 4 -210 4 l-210 0 0 -22z"/>
<path d="M1630 913 c0 -23 2 -23 125 -23 123 0 125 0 125 23 0 22 -2 22 -125
22 -123 0 -125 0 -125 -22z"/>
<path d="M130 843 c0 -5 7 -16 14 -25 12 -17 45 -18 433 -18 l420 0 23 25 23
25 -456 0 c-251 0 -457 -3 -457 -7z"/>
<path d="M1160 825 l0 -25 148 0 c145 0 149 1 172 25 l23 25 -171 0 -172 0 0
-25z"/>
<path d="M1630 825 l0 -25 125 0 125 0 0 25 0 25 -125 0 -125 0 0 -25z"/>
<path d="M190 761 c0 -18 94 -92 154 -121 34 -17 89 -36 124 -42 l62 -12 0
-125 0 -126 210 210 c116 115 210 213 210 217 0 5 -171 8 -380 8 -223 0 -380
-4 -380 -9z"/>
<path d="M1160 638 l0 -133 125 125 c69 69 125 128 125 132 0 5 -56 8 -125 8
l-125 0 0 -132z"/>
<path d="M1630 680 l0 -90 125 0 125 0 0 90 0 90 -125 0 -125 0 0 -90z"/>
</g>
</svg>
